<svg width="188" height="150" viewBox="0 0 188 150" fill="none" xmlns="http://www.w3.org/2000/svg">
<path fill-rule="evenodd" clip-rule="evenodd" d="M10.5 1.62331C8.85 2.49231 6.43 4.16231 5.121 5.33331C0.0440001 9.87531 0 10.3723 0 62.5913V111.285L2.443 115.454C4.904 119.653 10.439 123.255 16.25 124.439C17.969 124.789 19.004 125.648 19.01 126.73C19.027 129.835 23.677 138.387 27.128 141.66C41.842 155.617 66.657 149.414 72.692 130.271L74.365 124.961H93.683C112.877 124.961 113 124.975 113 127.145C113 130.518 116.903 137.798 120.802 141.697C130.131 151.025 145.787 151.946 157.177 143.835C160.88 141.198 165.679 133.867 167.06 128.736C167.842 125.836 168.689 124.847 170.786 124.39C178.382 122.735 182.709 119.297 185.447 112.743C187.514 107.794 187.671 79.7713 185.653 75.9043C183.144 71.0963 151.04 33.3003 148.47 32.1293C146.79 31.3643 139.075 30.9613 126.092 30.9613H106.277L105.777 22.1783C105.489 17.1363 104.616 12.1313 103.727 10.4283C101.709 6.56231 97.224 2.36231 93.685 1.02531C91.866 0.337309 77.184 -0.024691 52.185 0.00130904C18.896 0.035309 13.082 0.262309 10.5 1.62331ZM91 13.9613C92.931 15.8923 93 17.2943 93 54.4613V92.9613H99.5H106V67.9613V42.9613L123.25 42.9763C135.048 42.9863 141.282 43.3863 142.973 44.2423C146.12 45.8343 171.365 74.3663 173.529 78.7773C176 83.8133 175.307 106.867 172.595 109.859C169.778 112.967 166.497 112.576 164.997 108.953C163.283 104.816 157.217 98.7753 152.457 96.4653C146.272 93.4633 135.554 93.2373 129.193 95.9743C123.841 98.2763 116.655 105.107 114.997 109.469L114.05 111.961H93.133H72.217L71.645 109.684C70.679 105.832 64.262 99.2713 58.801 96.5493C52.262 93.2913 41.763 92.9773 35.435 95.8513C29.925 98.3543 24.294 103.465 21.921 108.116C19.618 112.631 16.065 113.32 13.557 109.738C12.203 107.805 12.002 101.593 12.015 61.9883C12.024 36.9483 12.361 15.9733 12.765 15.3763C14.862 12.2773 17.923 12.0213 53.25 11.9913C87.688 11.9623 89.073 12.0343 91 13.9613ZM54.763 108.633C61.65 113.775 63.634 121.016 60.108 128.142C58.933 130.518 56.771 133.331 55.305 134.394C51.54 137.124 43.427 137.56 39.071 135.266C33.485 132.325 31.5 128.752 31.5 121.638C31.5 114.611 33.219 111.486 39 108C43.312 105.401 50.838 105.703 54.763 108.633ZM148.763 108.633C153.659 112.289 155.391 115.592 155.447 121.388C155.507 127.487 153.596 130.909 148.01 134.711C141.747 138.974 131.671 136.968 127.52 130.631C120.103 119.312 128.149 105.108 141.324 106.26C143.978 106.492 147.325 107.56 148.763 108.633Z" fill="#546C99"/>
</svg>
