<svg width="40" height="40" viewBox="0 0 40 40" fill="none" xmlns="http://www.w3.org/2000/svg">
<path fill-rule="evenodd" clip-rule="evenodd" d="M21.6531 0.136778C20.8845 0.522022 20.8159 1.60874 21.5306 2.07597C21.6405 2.14788 22.1798 2.30631 22.729 2.42808C24.4093 2.80058 25.2386 3.07461 26.7437 3.75482C28.8995 4.72915 30.8059 6.08349 32.5855 7.90505C35.1544 10.5345 36.8391 13.6955 37.6247 17.3606C37.8368 18.35 37.8893 18.4729 38.1961 18.7007C38.6868 19.0649 39.2974 19.0303 39.6955 18.6158C40.0538 18.2427 40.0779 17.9994 39.8618 16.9406C38.2905 9.24415 32.4549 2.8814 24.9016 0.629178C24.0411 0.372661 22.383 -0.000234366 22.1033 1.10525e-07C22.0056 1.10525e-07 21.803 0.0615892 21.6531 0.136778ZM6.52156 2.49373C5.51786 2.81411 4.68424 3.51073 2.33487 5.99235C0.651957 7.77015 0.190609 8.66569 0.0342404 10.4587C-0.188012 13.0075 0.673266 16.2344 2.57256 19.9694C3.37626 21.5499 3.73623 22.1627 4.75372 23.6819C8.59407 29.4163 13.6276 33.9887 19.5755 37.1456C22.9463 38.9347 25.7943 39.8535 28.3888 39.9887C30.2231 40.0843 31.8523 39.5726 33.0762 38.5164C33.2197 38.3924 34.1198 37.4899 35.0764 36.5108C36.6602 34.8896 36.8452 34.6716 37.1466 34.0716C37.7386 32.8933 37.7402 31.8425 37.1519 30.6381C36.8356 29.9903 36.7548 29.9012 33.9204 27.0717C31.1691 24.3253 30.9815 24.1546 30.4213 23.8885C29.2217 23.3189 27.9883 23.3741 26.8246 24.0494C26.6293 24.1627 25.7404 24.9744 24.8493 25.8531L23.2291 27.4508L22.4489 27.0386C19.0052 25.2192 14.4779 20.6717 12.7952 17.3419L12.4943 16.7466L14.0004 15.2317C15.6059 13.6166 15.9918 13.1298 16.251 12.3931C16.6009 11.3987 16.5304 10.442 16.0331 9.4365C15.7766 8.91791 15.5116 8.62974 12.8464 5.97156C9.81289 2.94588 9.56863 2.74212 8.64656 2.46896C8.0854 2.30271 7.08366 2.31436 6.52156 2.49373ZM8.27749 4.76784C8.76814 4.99786 13.8301 10.0725 14.0467 10.5513C14.4538 11.4517 14.2825 11.7486 12.1307 13.873C11.1728 14.8187 10.3277 15.7132 10.2529 15.8608C10.0329 16.294 10.1263 17.0859 10.4877 17.8532C11.4949 19.9911 13.1268 22.1464 15.6136 24.6233C17.6545 26.656 19.753 28.2302 21.875 29.3202C22.7624 29.7761 22.8828 29.8171 23.3243 29.8134C23.6332 29.8109 23.9042 29.758 24.0801 29.6659C24.2309 29.587 25.1475 28.7404 26.1169 27.7847C27.0864 26.8289 27.9999 25.9858 28.1467 25.911C28.5385 25.712 29.224 25.7766 29.6192 26.0498C30.1733 26.433 34.9368 31.277 35.1253 31.6491C35.3549 32.1025 35.3545 32.6141 35.1242 33.066C34.955 33.3979 32.4308 36.039 31.5621 36.7929C30.3064 37.8827 28.5419 38.0142 25.6469 37.234C23.5322 36.664 20.2677 35.0851 17.5778 33.3315C11.8567 29.6017 6.6245 23.5584 3.97917 17.6247C2.27847 13.81 1.85919 10.8851 2.75243 9.06626C2.91342 8.73846 3.39177 8.20331 4.7672 6.81208C5.90862 5.6576 6.70034 4.91994 6.92345 4.80309C7.36184 4.57354 7.83682 4.56119 8.27749 4.76784ZM21.2787 7.42453C20.7429 7.75038 20.5535 8.45513 20.8647 8.96434C21.0846 9.32418 21.2763 9.42118 22.2232 9.65174C24.396 10.1807 26.1386 11.1743 27.6231 12.7306C29.0204 14.1954 29.9697 15.9567 30.3875 17.8591C30.5493 18.5962 30.6631 18.8434 30.9412 19.0616C31.5758 19.5596 32.5941 19.1925 32.7407 18.413C32.8521 17.8204 32.2635 15.7828 31.589 14.4263C29.8412 10.9112 26.6721 8.37979 22.8658 7.45845C21.9154 7.22843 21.6117 7.22195 21.2787 7.42453Z" fill="#009047"/>
</svg>
