<svg width="20" height="14" viewBox="0 0 20 14" fill="none" xmlns="http://www.w3.org/2000/svg">
<path fill-rule="evenodd" clip-rule="evenodd" d="M1.43388 0.156375C0.900224 0.361449 0.358209 0.910927 0.155672 1.4522C0.00343273 1.85906 0 1.98115 0 6.93735C0 11.9425 0.00201499 12.0117 0.160522 12.4355C0.369179 12.993 0.890672 13.5108 1.45716 13.7227C1.86701 13.8761 1.95455 13.8776 10 13.8776C18.0454 13.8776 18.133 13.8761 18.5428 13.7227C19.1093 13.5108 19.6308 12.993 19.8395 12.4355C19.998 12.0117 20 11.9425 20 6.93735C20 1.98115 19.9966 1.85906 19.8443 1.4522C19.6366 0.896897 19.1001 0.360479 18.5449 0.152718C18.1321 -0.00168489 18.0632 -0.00295329 9.97851 0.000927306C1.9709 0.00473328 1.82149 0.00749391 1.43388 0.156375ZM18.3575 1.031C18.6052 1.16384 19.0891 1.68063 19.024 1.74272C18.8552 1.90354 11.1527 6.92324 10.8985 7.03809C10.4305 7.24958 9.56918 7.24973 9.10448 7.03854C8.85634 6.9257 1.16769 1.91511 0.976044 1.7413C0.909925 1.68138 1.39619 1.16309 1.64246 1.031C1.8894 0.898613 2.25381 0.892569 10 0.892569C17.7462 0.892569 18.1106 0.898613 18.3575 1.031ZM4.35478 5.02466C6.14619 6.20966 7.61194 7.20541 7.61194 7.2375C7.61194 7.2869 1.44918 11.9273 1.1356 12.1139C1.06537 12.1557 1.00418 12.1426 0.962388 12.0766C0.926865 12.0206 0.897313 9.89929 0.896642 7.36272C0.895746 3.50429 0.912015 2.76055 0.996567 2.81048C1.05216 2.84332 2.56336 3.83973 4.35478 5.02466ZM19.0677 11.9933C19.0453 12.0857 19.0025 12.1607 18.9725 12.1601C18.864 12.1579 12.4254 7.31749 12.4254 7.23809C12.4254 7.19332 13.9198 6.17026 15.7463 4.96473L19.0672 2.77287L19.0878 7.29914C19.0991 9.78861 19.0901 11.9009 19.0677 11.9933ZM8.92485 7.91518C9.5294 8.13041 10.4694 8.13085 11.0722 7.91623C11.313 7.83041 11.5481 7.78339 11.5946 7.81175C11.641 7.84003 13.1866 8.98764 15.0291 10.362C17.71 12.3618 18.3509 12.872 18.2381 12.9163C18.054 12.9885 1.94642 12.9887 1.76254 12.9164C1.65045 12.8724 2.31313 12.3459 5.04336 10.3097C6.92507 8.90645 8.46903 7.75824 8.4744 7.75824C8.4797 7.75824 8.68246 7.82884 8.92485 7.91518Z" fill="#009047"/>
</svg>
