<svg width="186" height="188" viewBox="0 0 186 188" fill="none" xmlns="http://www.w3.org/2000/svg">
<path fill-rule="evenodd" clip-rule="evenodd" d="M78.9422 0.623239C42.7022 6.27224 13.6872 31.6642 2.76321 67.2872C0.314207 75.2742 0.0602061 77.6032 0.00420614 92.5842C-0.0647939 110.865 0.662207 115.121 6.15221 128.584C13.1042 145.634 25.5962 160.899 40.9422 171.094C50.0352 177.135 63.1092 182.814 71.9422 184.559C75.2422 185.211 79.8292 186.159 82.1352 186.665C88.7212 188.109 97.3832 187.753 108.142 185.596C120.733 183.072 127.867 180.607 137.285 175.527C160.953 162.761 178.188 139.905 184.187 113.33C186.654 102.402 186.388 82.4682 183.628 71.2832C179.505 54.5832 170.785 39.2122 158.584 27.1412C146.328 15.0152 131.233 6.44424 115.335 2.58424C105.629 0.228239 87.6822 -0.738761 78.9422 0.623239ZM112.442 14.7082C122.23 17.1312 136.354 24.1872 144.167 30.5582C171.598 52.9272 181.174 91.9432 167.371 125.099C163.693 133.934 156.598 144.197 149.293 151.25L143.942 156.415L138.193 155.486C125.455 153.427 116.27 148.131 112.511 140.679C108.923 133.563 108.979 133.221 114.299 129.773C119.679 126.288 125.513 118.538 127.991 111.584C130.059 105.784 130.978 86.2942 129.632 76.8132C128.338 67.6962 125.39 61.5112 119.216 54.9582C103.473 38.2492 75.5312 40.4642 62.2502 59.4742C56.2832 68.0162 55.2262 73.2802 55.6112 92.5442C55.9382 108.944 55.9802 109.213 59.1922 115.733C62.2202 121.878 67.5842 127.907 73.3482 131.644C76.2202 133.505 75.8762 136.004 71.9122 142.084C68.3312 147.578 63.1602 151.023 54.9182 153.408C41.4492 157.304 41.9952 157.39 35.0412 150.297C4.75121 119.405 3.71621 70.0502 32.7062 39.0082C54.1522 16.0442 82.6972 7.34424 112.442 14.7082ZM98.7492 56.6432C105.221 58.2772 111.773 63.6012 114.809 69.6942C117.306 74.7042 117.441 75.7532 117.42 90.0302C117.401 103.006 117.117 105.705 115.361 109.584C110.965 119.296 103.696 123.985 92.9422 124.045C82.2642 124.105 74.4702 119.178 70.0672 109.584C67.1692 103.269 66.4882 82.3782 68.9092 74.0502C71.1462 66.3532 77.0312 60.1062 84.4602 57.5422C90.8432 55.3382 93.0372 55.2002 98.7492 56.6432ZM99.4832 140.334C101.6 146.971 105.771 152.563 111.418 156.334C116.925 160.012 126.651 164.476 129.442 164.607C132.281 164.74 121.697 169.49 113.826 171.615C98.0752 175.868 80.9842 175.239 65.9422 169.853C54.2442 165.664 54.2822 165.725 61.5572 162.824C75.1922 157.387 83.2552 150.049 85.7192 140.838L86.8572 136.584H92.5722H98.2872L99.4832 140.334Z" fill="#546C99"/>
</svg>
