<svg width="222" height="55" viewBox="0 0 222 55" fill="none" xmlns="http://www.w3.org/2000/svg">
<rect y="20" width="32" height="32" fill="#00B050"/>
<rect x="15" y="5" width="32" height="32" fill="#2E373E"/>
<path d="M69.3274 12.7109H65.2834C65.2095 12.1877 65.0587 11.723 64.831 11.3168C64.6032 10.9044 64.3108 10.5535 63.9538 10.2642C63.5968 9.9749 63.1844 9.75331 62.7166 9.59943C62.255 9.44555 61.7533 9.36861 61.2116 9.36861C60.233 9.36861 59.3804 9.61174 58.6541 10.098C57.9278 10.5781 57.3646 11.2798 56.9645 12.2031C56.5644 13.1203 56.3643 14.2344 56.3643 15.5455C56.3643 16.8935 56.5644 18.026 56.9645 18.9432C57.3707 19.8603 57.937 20.5528 58.6634 21.0206C59.3897 21.4884 60.2299 21.7223 61.1839 21.7223C61.7195 21.7223 62.215 21.6515 62.6705 21.5099C63.1321 21.3684 63.5414 21.1622 63.8984 20.8913C64.2554 20.6143 64.5509 20.2789 64.7848 19.8849C65.0249 19.491 65.1911 19.0417 65.2834 18.5369L69.3274 18.5554C69.2228 19.4233 68.9612 20.2604 68.5426 21.0668C68.1302 21.867 67.5732 22.584 66.8714 23.218C66.1759 23.8459 65.3449 24.3445 64.3786 24.7138C63.4183 25.0769 62.3319 25.2585 61.1193 25.2585C59.4328 25.2585 57.9247 24.8769 56.5952 24.1136C55.2718 23.3504 54.2254 22.2455 53.456 20.799C52.6927 19.3525 52.3111 17.6013 52.3111 15.5455C52.3111 13.4834 52.6989 11.7292 53.4744 10.2827C54.25 8.83617 55.3026 7.73437 56.6321 6.97727C57.9616 6.21401 59.4574 5.83239 61.1193 5.83239C62.215 5.83239 63.2306 5.98627 64.1662 6.29403C65.108 6.6018 65.942 7.05114 66.6683 7.64204C67.3946 8.2268 67.9856 8.94389 68.4411 9.79332C68.9027 10.6428 69.1982 11.6153 69.3274 12.7109ZM88.2688 6.09091V25H84.3171V9.34091H76.6722V25H72.7205V6.09091H88.2688ZM92.0751 6.09091H96.0637V17.983H96.2207L104.392 6.09091H107.891V25H103.893V13.0987H103.755L95.5375 25H92.0751V6.09091ZM110.169 25V21.7869L110.705 21.7408C111.394 21.6854 111.951 21.4238 112.376 20.956C112.801 20.482 113.118 19.728 113.327 18.6939C113.542 17.6536 113.681 16.2564 113.743 14.5021L114.056 6.09091H126.89V25H123.003V9.29474H117.768L117.473 15.8778C117.374 17.9953 117.122 19.7249 116.716 21.0668C116.315 22.4086 115.675 23.3996 114.795 24.0398C113.921 24.6799 112.724 25 111.203 25H110.169ZM146.87 12.7109H142.826C142.752 12.1877 142.602 11.723 142.374 11.3168C142.146 10.9044 141.854 10.5535 141.497 10.2642C141.14 9.9749 140.727 9.75331 140.26 9.59943C139.798 9.44555 139.296 9.36861 138.755 9.36861C137.776 9.36861 136.923 9.61174 136.197 10.098C135.471 10.5781 134.908 11.2798 134.507 12.2031C134.107 13.1203 133.907 14.2344 133.907 15.5455C133.907 16.8935 134.107 18.026 134.507 18.9432C134.914 19.8603 135.48 20.5528 136.206 21.0206C136.933 21.4884 137.773 21.7223 138.727 21.7223C139.262 21.7223 139.758 21.6515 140.213 21.5099C140.675 21.3684 141.084 21.1622 141.441 20.8913C141.798 20.6143 142.094 20.2789 142.328 19.8849C142.568 19.491 142.734 19.0417 142.826 18.5369L146.87 18.5554C146.766 19.4233 146.504 20.2604 146.086 21.0668C145.673 21.867 145.116 22.584 144.414 23.218C143.719 23.8459 142.888 24.3445 141.922 24.7138C140.961 25.0769 139.875 25.2585 138.662 25.2585C136.976 25.2585 135.468 24.8769 134.138 24.1136C132.815 23.3504 131.768 22.2455 130.999 20.799C130.236 19.3525 129.854 17.6013 129.854 15.5455C129.854 13.4834 130.242 11.7292 131.017 10.2827C131.793 8.83617 132.846 7.73437 134.175 6.97727C135.505 6.21401 137 5.83239 138.662 5.83239C139.758 5.83239 140.774 5.98627 141.709 6.29403C142.651 6.6018 143.485 7.05114 144.211 7.64204C144.938 8.2268 145.529 8.94389 145.984 9.79332C146.446 10.6428 146.741 11.6153 146.87 12.7109ZM149.017 9.38707V6.09091H164.547V9.38707H158.758V25H154.806V9.38707H149.017ZM167.104 25V6.09091H174.565C175.999 6.09091 177.221 6.36482 178.23 6.91264C179.24 7.45431 180.009 8.20833 180.538 9.17471C181.074 10.1349 181.342 11.2429 181.342 12.4986C181.342 13.7543 181.071 14.8622 180.529 15.8224C179.987 16.7827 179.203 17.5305 178.175 18.0661C177.153 18.6016 175.916 18.8693 174.463 18.8693H169.708V15.6655H173.817C174.586 15.6655 175.22 15.5331 175.719 15.2685C176.223 14.9976 176.599 14.6252 176.845 14.1513C177.098 13.6712 177.224 13.1203 177.224 12.4986C177.224 11.8707 177.098 11.3229 176.845 10.8551C176.599 10.3812 176.223 10.0149 175.719 9.75639C175.214 9.49171 174.574 9.35938 173.798 9.35938H171.102V25H167.104ZM201.315 15.5455C201.315 17.6075 200.924 19.3617 200.142 20.8082C199.367 22.2547 198.308 23.3596 196.966 24.1229C195.63 24.88 194.128 25.2585 192.46 25.2585C190.78 25.2585 189.272 24.8769 187.936 24.1136C186.601 23.3504 185.545 22.2455 184.769 20.799C183.994 19.3525 183.606 17.6013 183.606 15.5455C183.606 13.4834 183.994 11.7292 184.769 10.2827C185.545 8.83617 186.601 7.73437 187.936 6.97727C189.272 6.21401 190.78 5.83239 192.46 5.83239C194.128 5.83239 195.63 6.21401 196.966 6.97727C198.308 7.73437 199.367 8.83617 200.142 10.2827C200.924 11.7292 201.315 13.4834 201.315 15.5455ZM197.262 15.5455C197.262 14.2098 197.061 13.0833 196.661 12.1662C196.267 11.2491 195.71 10.5535 194.99 10.0795C194.27 9.60559 193.427 9.36861 192.46 9.36861C191.494 9.36861 190.651 9.60559 189.931 10.0795C189.21 10.5535 188.65 11.2491 188.25 12.1662C187.856 13.0833 187.659 14.2098 187.659 15.5455C187.659 16.8812 187.856 18.0076 188.25 18.9247C188.65 19.8419 189.21 20.5374 189.931 21.0114C190.651 21.4853 191.494 21.7223 192.46 21.7223C193.427 21.7223 194.27 21.4853 194.99 21.0114C195.71 20.5374 196.267 19.8419 196.661 18.9247C197.061 18.0076 197.262 16.8812 197.262 15.5455ZM204.276 6.09091H208.265V17.983H208.422L216.593 6.09091H220.092V25H216.094V13.0987H215.956L207.739 25H204.276V6.09091ZM214.026 1.14204H216.768C216.762 2.26231 216.347 3.16406 215.522 3.8473C214.703 4.53054 213.595 4.87216 212.198 4.87216C210.795 4.87216 209.684 4.53054 208.865 3.8473C208.046 3.16406 207.637 2.26231 207.637 1.14204H210.361C210.355 1.56676 210.49 1.94839 210.767 2.28693C211.05 2.62547 211.527 2.79474 212.198 2.79474C212.851 2.79474 213.318 2.62855 213.602 2.29616C213.885 1.96378 214.026 1.57907 214.026 1.14204Z" fill="#2E373E"/>
<path d="M55.2557 38.1491C54.5099 38.1491 53.8636 37.9851 53.3168 37.657C52.7699 37.3288 52.3456 36.8698 52.044 36.2798C51.7457 35.6899 51.5966 35.0005 51.5966 34.2116C51.5966 33.4228 51.7457 32.7318 52.044 32.1385C52.3456 31.5452 52.7699 31.0845 53.3168 30.7564C53.8636 30.4283 54.5099 30.2642 55.2557 30.2642C56.0014 30.2642 56.6477 30.4283 57.1946 30.7564C57.7415 31.0845 58.1641 31.5452 58.4624 32.1385C58.764 32.7318 58.9148 33.4228 58.9148 34.2116C58.9148 35.0005 58.764 35.6899 58.4624 36.2798C58.1641 36.8698 57.7415 37.3288 57.1946 37.657C56.6477 37.9851 56.0014 38.1491 55.2557 38.1491ZM55.2656 36.7074C55.67 36.7074 56.008 36.5964 56.2798 36.3743C56.5516 36.1489 56.7538 35.8473 56.8864 35.4695C57.0223 35.0916 57.0902 34.6707 57.0902 34.2067C57.0902 33.7393 57.0223 33.3168 56.8864 32.9389C56.7538 32.5578 56.5516 32.2545 56.2798 32.0291C56.008 31.8037 55.67 31.6911 55.2656 31.6911C54.8513 31.6911 54.5066 31.8037 54.2315 32.0291C53.9598 32.2545 53.7559 32.5578 53.62 32.9389C53.4875 33.3168 53.4212 33.7393 53.4212 34.2067C53.4212 34.6707 53.4875 35.0916 53.62 35.4695C53.7559 35.8473 53.9598 36.1489 54.2315 36.3743C54.5066 36.5964 54.8513 36.7074 55.2656 36.7074ZM59.4623 38V30.3636H65.9104V38H64.1754V31.8402H61.1825V38H59.4623ZM65.926 31.8402V30.3636H72.6078V31.8402H70.1369V38H68.3969V31.8402H65.926ZM76.0774 38.1491C75.3317 38.1491 74.6854 37.9851 74.1385 37.657C73.5916 37.3288 73.1674 36.8698 72.8658 36.2798C72.5675 35.6899 72.4183 35.0005 72.4183 34.2116C72.4183 33.4228 72.5675 32.7318 72.8658 32.1385C73.1674 31.5452 73.5916 31.0845 74.1385 30.7564C74.6854 30.4283 75.3317 30.2642 76.0774 30.2642C76.8231 30.2642 77.4694 30.4283 78.0163 30.7564C78.5632 31.0845 78.9858 31.5452 79.2841 32.1385C79.5857 32.7318 79.7365 33.4228 79.7365 34.2116C79.7365 35.0005 79.5857 35.6899 79.2841 36.2798C78.9858 36.8698 78.5632 37.3288 78.0163 37.657C77.4694 37.9851 76.8231 38.1491 76.0774 38.1491ZM76.0873 36.7074C76.4917 36.7074 76.8298 36.5964 77.1015 36.3743C77.3733 36.1489 77.5755 35.8473 77.7081 35.4695C77.844 35.0916 77.9119 34.6707 77.9119 34.2067C77.9119 33.7393 77.844 33.3168 77.7081 32.9389C77.5755 32.5578 77.3733 32.2545 77.1015 32.0291C76.8298 31.8037 76.4917 31.6911 76.0873 31.6911C75.673 31.6911 75.3283 31.8037 75.0533 32.0291C74.7815 32.2545 74.5776 32.5578 74.4417 32.9389C74.3092 33.3168 74.2429 33.7393 74.2429 34.2067C74.2429 34.6707 74.3092 35.0916 74.4417 35.4695C74.5776 35.8473 74.7815 36.1489 75.0533 36.3743C75.3283 36.5964 75.673 36.7074 76.0873 36.7074ZM80.284 38V30.3636H83.4907C84.3955 30.3636 85.1098 30.5443 85.6334 30.9055C86.1604 31.2668 86.4239 31.7706 86.4239 32.4169C86.4239 32.8445 86.2748 33.1941 85.9765 33.4659C85.6815 33.7344 85.2788 33.915 84.7684 34.0078C85.1694 34.041 85.5208 34.142 85.8224 34.3111C86.1273 34.4801 86.3659 34.7022 86.5383 34.9773C86.7106 35.2524 86.7968 35.5689 86.7968 35.9268C86.7968 36.3478 86.6858 36.714 86.4637 37.0256C86.245 37.3338 85.9251 37.5741 85.5042 37.7464C85.0866 37.9155 84.5795 38 83.9829 38H80.284ZM81.9694 36.5831H83.9829C84.3143 36.5831 84.5745 36.5052 84.7634 36.3494C84.9523 36.1903 85.0468 35.9749 85.0468 35.7031C85.0468 35.3883 84.9523 35.1413 84.7634 34.9624C84.5745 34.7801 84.3143 34.6889 83.9829 34.6889H81.9694V36.5831ZM81.9694 33.5256H83.5255C83.7708 33.5256 83.9812 33.4908 84.1569 33.4212C84.3325 33.3482 84.4668 33.2472 84.5596 33.1179C84.6524 32.9853 84.6988 32.8279 84.6988 32.6456C84.6988 32.3838 84.5911 32.1783 84.3756 32.0291C84.1635 31.88 83.8685 31.8054 83.4907 31.8054H81.9694V33.5256ZM88.5201 32.8494H90.7722C91.7467 32.8494 92.5007 33.0864 93.0343 33.5604C93.5679 34.0343 93.8364 34.6558 93.8397 35.4247C93.8364 35.9252 93.7138 36.3693 93.4718 36.7571C93.2332 37.1449 92.8852 37.4498 92.4278 37.6719C91.9737 37.8906 91.4219 38 90.7722 38H87.3021V30.3636H89.0371V36.5234H90.7722C91.1633 36.5234 91.4848 36.424 91.7367 36.2251C91.9886 36.023 92.1146 35.7644 92.1146 35.4496C92.1146 35.1181 91.9886 34.848 91.7367 34.6392C91.4848 34.4304 91.1633 34.326 90.7722 34.326H88.5201V32.8494ZM94.7893 38V30.3636H96.589V38H94.7893ZM99.1997 35.5639L102.257 30.3636H104.107V38H102.367V32.7947L99.319 38H97.4646V30.3636H99.1997V35.5639ZM101.765 27.7386H103.112C103.112 28.3187 102.902 28.7893 102.481 29.1506C102.063 29.5085 101.497 29.6875 100.781 29.6875C100.071 29.6875 99.5063 29.5085 99.0854 29.1506C98.6678 28.7893 98.4606 28.3187 98.4639 27.7386H99.8013C99.8013 27.9773 99.8742 28.1911 100.02 28.38C100.169 28.5656 100.423 28.6584 100.781 28.6584C101.132 28.6584 101.382 28.5656 101.531 28.38C101.684 28.1944 101.762 27.9806 101.765 27.7386ZM107.547 27.8182H109.377V34.7585H109.471L114.259 27.8182H115.914V38H114.07V31.0646H113.985L109.183 38H107.547V27.8182ZM122.11 33.4361V34.9126H118.043V33.4361H122.11ZM118.6 30.3636V38H116.864V30.3636H118.6ZM123.288 30.3636V38H121.558V30.3636H123.288ZM123.274 31.8402V30.3636H129.955V31.8402H127.484V38H125.744V31.8402H123.274ZM133.475 38.1491C132.709 38.1491 132.048 37.9901 131.491 37.6719C130.937 37.3504 130.512 36.8963 130.213 36.3097C129.915 35.7197 129.766 35.0253 129.766 34.2266C129.766 33.4411 129.915 32.7517 130.213 32.1584C130.515 31.5618 130.936 31.0978 131.476 30.7663C132.016 30.4316 132.651 30.2642 133.38 30.2642C133.851 30.2642 134.295 30.3404 134.713 30.4929C135.133 30.642 135.505 30.8741 135.826 31.1889C136.151 31.5038 136.406 31.9048 136.592 32.392C136.777 32.8759 136.87 33.4527 136.87 34.1222V34.674H130.611V33.4609H135.145C135.142 33.1162 135.067 32.8097 134.921 32.5412C134.776 32.2694 134.572 32.0556 134.31 31.8999C134.051 31.7441 133.75 31.6662 133.405 31.6662C133.037 31.6662 132.714 31.7557 132.436 31.9347C132.157 32.1103 131.94 32.3423 131.784 32.6307C131.632 32.9157 131.554 33.2289 131.551 33.5703V34.6293C131.551 35.0734 131.632 35.4545 131.794 35.7727C131.957 36.0876 132.184 36.3295 132.475 36.4986C132.767 36.6643 133.108 36.7472 133.499 36.7472C133.761 36.7472 133.998 36.7107 134.21 36.6378C134.423 36.5616 134.606 36.4505 134.762 36.3047C134.918 36.1589 135.036 35.9782 135.115 35.7628L136.796 35.9517C136.69 36.3958 136.487 36.7836 136.189 37.1151C135.894 37.4432 135.516 37.6984 135.056 37.8807C134.595 38.0597 134.068 38.1491 133.475 38.1491ZM137.413 40.8636V30.3636H139.183V31.6264H139.287C139.38 31.4408 139.511 31.2436 139.68 31.0348C139.849 30.8227 140.078 30.642 140.366 30.4929C140.654 30.3404 141.022 30.2642 141.47 30.2642C142.06 30.2642 142.592 30.415 143.065 30.7166C143.543 31.0149 143.921 31.4574 144.199 32.044C144.481 32.6274 144.622 33.3433 144.622 34.1918C144.622 35.0303 144.484 35.7429 144.209 36.3295C143.934 36.9162 143.559 37.3636 143.085 37.6719C142.611 37.9801 142.074 38.1342 141.475 38.1342C141.037 38.1342 140.674 38.0613 140.386 37.9155C140.097 37.7696 139.865 37.594 139.69 37.3885C139.517 37.1797 139.383 36.9825 139.287 36.7969H139.212V40.8636H137.413ZM139.178 34.1818C139.178 34.6757 139.247 35.1082 139.386 35.4794C139.529 35.8506 139.733 36.1406 139.998 36.3494C140.266 36.5549 140.591 36.6577 140.972 36.6577C141.37 36.6577 141.703 36.5516 141.972 36.3395C142.24 36.1241 142.442 35.8307 142.578 35.4595C142.717 35.085 142.787 34.6591 142.787 34.1818C142.787 33.7079 142.719 33.2869 142.583 32.919C142.447 32.5511 142.245 32.2628 141.977 32.054C141.708 31.8452 141.373 31.7408 140.972 31.7408C140.588 31.7408 140.261 31.8419 139.993 32.044C139.725 32.2462 139.521 32.5296 139.382 32.8942C139.246 33.2588 139.178 33.688 139.178 34.1818ZM150.428 33.4361V34.9126H146.361V33.4361H150.428ZM146.918 30.3636V38H145.183V30.3636H146.918ZM151.606 30.3636V38H149.876V30.3636H151.606ZM155.828 38.1491C155.062 38.1491 154.401 37.9901 153.844 37.6719C153.29 37.3504 152.865 36.8963 152.566 36.3097C152.268 35.7197 152.119 35.0253 152.119 34.2266C152.119 33.4411 152.268 32.7517 152.566 32.1584C152.868 31.5618 153.289 31.0978 153.829 30.7663C154.369 30.4316 155.004 30.2642 155.733 30.2642C156.204 30.2642 156.648 30.3404 157.066 30.4929C157.486 30.642 157.858 30.8741 158.179 31.1889C158.504 31.5038 158.759 31.9048 158.945 32.392C159.13 32.8759 159.223 33.4527 159.223 34.1222V34.674H152.964V33.4609H157.498C157.495 33.1162 157.42 32.8097 157.274 32.5412C157.128 32.2694 156.925 32.0556 156.663 31.8999C156.404 31.7441 156.103 31.6662 155.758 31.6662C155.39 31.6662 155.067 31.7557 154.789 31.9347C154.51 32.1103 154.293 32.3423 154.137 32.6307C153.985 32.9157 153.907 33.2289 153.904 33.5703V34.6293C153.904 35.0734 153.985 35.4545 154.147 35.7727C154.31 36.0876 154.537 36.3295 154.828 36.4986C155.12 36.6643 155.461 36.7472 155.852 36.7472C156.114 36.7472 156.351 36.7107 156.563 36.6378C156.776 36.5616 156.959 36.4505 157.115 36.3047C157.271 36.1589 157.389 35.9782 157.468 35.7628L159.149 35.9517C159.043 36.3958 158.84 36.7836 158.542 37.1151C158.247 37.4432 157.869 37.6984 157.409 37.8807C156.948 38.0597 156.421 38.1491 155.828 38.1491ZM159.129 31.8402V30.3636H165.811V31.8402H163.34V38H161.6V31.8402H159.129ZM170.66 33.0185V34.5H166.077V33.0185H170.66ZM175.968 35.907L178.235 30.3636H179.687L176.6 38H175.342L172.324 30.3636H173.761L175.968 35.907ZM173.308 30.3636V38H171.573V30.3636H173.308ZM178.703 38V30.3636H180.423V38H178.703ZM183.455 38.1541C182.971 38.1541 182.535 38.0679 182.147 37.8956C181.763 37.7199 181.458 37.4614 181.233 37.12C181.01 36.7786 180.899 36.3577 180.899 35.8572C180.899 35.4264 180.979 35.0701 181.138 34.7884C181.297 34.5066 181.514 34.2812 181.789 34.1122C182.064 33.9432 182.374 33.8156 182.719 33.7294C183.067 33.6399 183.427 33.5753 183.798 33.5355C184.245 33.4891 184.608 33.4477 184.887 33.4112C185.165 33.3714 185.367 33.3118 185.493 33.2322C185.622 33.1494 185.687 33.0218 185.687 32.8494V32.8196C185.687 32.4451 185.576 32.1551 185.354 31.9496C185.132 31.7441 184.812 31.6413 184.394 31.6413C183.954 31.6413 183.604 31.7375 183.345 31.9297C183.09 32.1219 182.918 32.349 182.828 32.6108L181.148 32.3722C181.281 31.9081 181.499 31.5204 181.804 31.2088C182.109 30.8939 182.482 30.6586 182.923 30.5028C183.364 30.3438 183.851 30.2642 184.385 30.2642C184.752 30.2642 185.119 30.3073 185.483 30.3935C185.848 30.4796 186.181 30.6222 186.483 30.821C186.784 31.0166 187.026 31.2834 187.208 31.6214C187.394 31.9595 187.487 32.3821 187.487 32.8892V38H185.757V36.951H185.697C185.588 37.1631 185.434 37.362 185.235 37.5476C185.039 37.7299 184.792 37.8774 184.494 37.9901C184.199 38.0994 183.853 38.1541 183.455 38.1541ZM183.922 36.8317C184.283 36.8317 184.597 36.7604 184.862 36.6179C185.127 36.4721 185.331 36.2798 185.473 36.0412C185.619 35.8026 185.692 35.5424 185.692 35.2607V34.3608C185.636 34.4072 185.54 34.4503 185.404 34.4901C185.271 34.5298 185.122 34.5646 184.956 34.5945C184.791 34.6243 184.626 34.6508 184.464 34.674C184.302 34.6972 184.161 34.7171 184.041 34.7337C183.773 34.7701 183.533 34.8298 183.321 34.9126C183.108 34.9955 182.941 35.1115 182.818 35.2607C182.696 35.4065 182.635 35.5954 182.635 35.8274C182.635 36.1589 182.755 36.4091 182.997 36.5781C183.239 36.7472 183.548 36.8317 183.922 36.8317ZM193.368 30.3636V31.8402H190.076V38H188.316V30.3636H193.368ZM195.714 38.1541C195.23 38.1541 194.794 38.0679 194.406 37.8956C194.022 37.7199 193.717 37.4614 193.491 37.12C193.269 36.7786 193.158 36.3577 193.158 35.8572C193.158 35.4264 193.238 35.0701 193.397 34.7884C193.556 34.5066 193.773 34.2812 194.048 34.1122C194.323 33.9432 194.633 33.8156 194.978 33.7294C195.326 33.6399 195.685 33.5753 196.057 33.5355C196.504 33.4891 196.867 33.4477 197.145 33.4112C197.424 33.3714 197.626 33.3118 197.752 33.2322C197.881 33.1494 197.946 33.0218 197.946 32.8494V32.8196C197.946 32.4451 197.835 32.1551 197.613 31.9496C197.391 31.7441 197.071 31.6413 196.653 31.6413C196.212 31.6413 195.863 31.7375 195.604 31.9297C195.349 32.1219 195.177 32.349 195.087 32.6108L193.407 32.3722C193.539 31.9081 193.758 31.5204 194.063 31.2088C194.368 30.8939 194.741 30.6586 195.182 30.5028C195.622 30.3438 196.11 30.2642 196.643 30.2642C197.011 30.2642 197.377 30.3073 197.742 30.3935C198.107 30.4796 198.44 30.6222 198.741 30.821C199.043 31.0166 199.285 31.2834 199.467 31.6214C199.653 31.9595 199.746 32.3821 199.746 32.8892V38H198.015V36.951H197.956C197.846 37.1631 197.692 37.362 197.493 37.5476C197.298 37.7299 197.051 37.8774 196.753 37.9901C196.458 38.0994 196.111 38.1541 195.714 38.1541ZM196.181 36.8317C196.542 36.8317 196.855 36.7604 197.121 36.6179C197.386 36.4721 197.59 36.2798 197.732 36.0412C197.878 35.8026 197.951 35.5424 197.951 35.2607V34.3608C197.894 34.4072 197.798 34.4503 197.662 34.4901C197.53 34.5298 197.381 34.5646 197.215 34.5945C197.049 34.6243 196.885 34.6508 196.723 34.674C196.56 34.6972 196.42 34.7171 196.3 34.7337C196.032 34.7701 195.791 34.8298 195.579 34.9126C195.367 34.9955 195.2 35.1115 195.077 35.2607C194.955 35.4065 194.893 35.5954 194.893 35.8274C194.893 36.1589 195.014 36.4091 195.256 36.5781C195.498 36.7472 195.806 36.8317 196.181 36.8317ZM202.31 35.5639L205.368 30.3636H207.217V38H205.477V32.7947L202.43 38H200.575V30.3636H202.31V35.5639ZM213.33 33.4361V34.9126H209.264V33.4361H213.33ZM209.821 30.3636V38H208.085V30.3636H209.821ZM214.509 30.3636V38H212.779V30.3636H214.509ZM51.9247 52V44.3636H58.3729V52H56.6378V45.8402H53.6449V52H51.9247ZM60.9786 49.5639L64.0362 44.3636H65.8856V52H64.1455V46.7947L61.0979 52H59.2435V44.3636H60.9786V49.5639ZM66.2268 52L66.2168 50.5185H66.4803C66.6792 50.5185 66.8466 50.4737 66.9825 50.3842C67.1184 50.2947 67.2311 50.1456 67.3205 49.9368C67.41 49.7247 67.4796 49.4396 67.5293 49.0817C67.5791 48.7237 67.6139 48.2779 67.6337 47.7443L67.768 44.3636H73.3362V52H71.5961V45.8402H69.4036L69.2843 48.3011C69.2545 48.9375 69.1832 49.4893 69.0705 49.9567C68.9612 50.4207 68.8054 50.8035 68.6032 51.1051C68.4043 51.4067 68.1541 51.6321 67.8525 51.7812C67.5509 51.9271 67.1946 52 66.7836 52H66.2268ZM77.4993 52.1491C76.7535 52.1491 76.1072 51.9851 75.5604 51.657C75.0135 51.3288 74.5892 50.8698 74.2876 50.2798C73.9893 49.6899 73.8402 49.0005 73.8402 48.2116C73.8402 47.4228 73.9893 46.7318 74.2876 46.1385C74.5892 45.5452 75.0135 45.0845 75.5604 44.7564C76.1072 44.4283 76.7535 44.2642 77.4993 44.2642C78.245 44.2642 78.8913 44.4283 79.4382 44.7564C79.9851 45.0845 80.4077 45.5452 80.706 46.1385C81.0076 46.7318 81.1584 47.4228 81.1584 48.2116C81.1584 49.0005 81.0076 49.6899 80.706 50.2798C80.4077 50.8698 79.9851 51.3288 79.4382 51.657C78.8913 51.9851 78.245 52.1491 77.4993 52.1491ZM77.5092 50.7074C77.9136 50.7074 78.2516 50.5964 78.5234 50.3743C78.7952 50.1489 78.9974 49.8473 79.13 49.4695C79.2658 49.0916 79.3338 48.6707 79.3338 48.2067C79.3338 47.7393 79.2658 47.3168 79.13 46.9389C78.9974 46.5578 78.7952 46.2545 78.5234 46.0291C78.2516 45.8037 77.9136 45.6911 77.5092 45.6911C77.0949 45.6911 76.7502 45.8037 76.4751 46.0291C76.2033 46.2545 75.9995 46.5578 75.8636 46.9389C75.731 47.3168 75.6648 47.7393 75.6648 48.2067C75.6648 48.6707 75.731 49.0916 75.8636 49.4695C75.9995 49.8473 76.2033 50.1489 76.4751 50.3743C76.7502 50.5964 77.0949 50.7074 77.5092 50.7074ZM86.1008 49.907L88.3678 44.3636H89.8195L86.7322 52H85.4744L82.4566 44.3636H83.8934L86.1008 49.907ZM83.441 44.3636V52H81.7059V44.3636H83.441ZM88.8351 52V44.3636H90.5553V52H88.8351ZM93.5874 52.1541C93.1035 52.1541 92.6676 52.0679 92.2799 51.8956C91.8954 51.7199 91.5905 51.4614 91.3651 51.12C91.143 50.7786 91.032 50.3577 91.032 49.8572C91.032 49.4264 91.1115 49.0701 91.2706 48.7884C91.4297 48.5066 91.6468 48.2812 91.9219 48.1122C92.197 47.9432 92.5069 47.8156 92.8516 47.7294C93.1996 47.6399 93.5592 47.5753 93.9304 47.5355C94.3779 47.4891 94.7408 47.4477 95.0192 47.4112C95.2976 47.3714 95.4998 47.3118 95.6257 47.2322C95.755 47.1494 95.8196 47.0218 95.8196 46.8494V46.8196C95.8196 46.4451 95.7086 46.1551 95.4865 45.9496C95.2645 45.7441 94.9446 45.6413 94.527 45.6413C94.0862 45.6413 93.7365 45.7375 93.478 45.9297C93.2228 46.1219 93.0505 46.349 92.961 46.6108L91.2806 46.3722C91.4131 45.9081 91.6319 45.5204 91.9368 45.2088C92.2417 44.8939 92.6146 44.6586 93.0554 44.5028C93.4962 44.3438 93.9835 44.2642 94.5171 44.2642C94.885 44.2642 95.2512 44.3073 95.6158 44.3935C95.9804 44.4796 96.3135 44.6222 96.6151 44.821C96.9167 45.0166 97.1587 45.2834 97.3409 45.6214C97.5265 45.9595 97.6194 46.3821 97.6194 46.8892V52H95.8892V50.951H95.8296C95.7202 51.1631 95.5661 51.362 95.3672 51.5476C95.1717 51.7299 94.9247 51.8774 94.6265 51.9901C94.3315 52.0994 93.9851 52.1541 93.5874 52.1541ZM94.0547 50.8317C94.416 50.8317 94.7292 50.7604 94.9944 50.6179C95.2595 50.4721 95.4633 50.2798 95.6059 50.0412C95.7517 49.8026 95.8246 49.5424 95.8246 49.2607V48.3608C95.7683 48.4072 95.6721 48.4503 95.5363 48.4901C95.4037 48.5298 95.2545 48.5646 95.0888 48.5945C94.9231 48.6243 94.759 48.6508 94.5966 48.674C94.4342 48.6972 94.2934 48.7171 94.174 48.7337C93.9056 48.7701 93.6653 48.8298 93.4532 48.9126C93.241 48.9955 93.0737 49.1115 92.951 49.2607C92.8284 49.4065 92.7671 49.5954 92.7671 49.8274C92.7671 50.1589 92.8881 50.4091 93.13 50.5781C93.372 50.7472 93.6802 50.8317 94.0547 50.8317ZM97.5939 45.8402V44.3636H104.276V45.8402H101.805V52H100.065V45.8402H97.5939ZM107.795 52.1491C107.029 52.1491 106.368 51.9901 105.811 51.6719C105.258 51.3504 104.832 50.8963 104.534 50.3097C104.235 49.7197 104.086 49.0253 104.086 48.2266C104.086 47.4411 104.235 46.7517 104.534 46.1584C104.835 45.5618 105.256 45.0978 105.796 44.7663C106.337 44.4316 106.971 44.2642 107.701 44.2642C108.171 44.2642 108.615 44.3404 109.033 44.4929C109.454 44.642 109.825 44.8741 110.147 45.1889C110.471 45.5038 110.727 45.9048 110.912 46.392C111.098 46.8759 111.191 47.4527 111.191 48.1222V48.674H104.931V47.4609H109.465C109.462 47.1162 109.388 46.8097 109.242 46.5412C109.096 46.2694 108.892 46.0556 108.63 45.8999C108.372 45.7441 108.07 45.6662 107.725 45.6662C107.358 45.6662 107.034 45.7557 106.756 45.9347C106.478 46.1103 106.26 46.3423 106.105 46.6307C105.952 46.9157 105.874 47.2289 105.871 47.5703V48.6293C105.871 49.0734 105.952 49.4545 106.115 49.7727C106.277 50.0876 106.504 50.3295 106.796 50.4986C107.087 50.6643 107.429 50.7472 107.82 50.7472C108.082 50.7472 108.319 50.7107 108.531 50.6378C108.743 50.5616 108.927 50.4505 109.083 50.3047C109.238 50.1589 109.356 49.9782 109.436 49.7628L111.116 49.9517C111.01 50.3958 110.808 50.7836 110.509 51.1151C110.215 51.4432 109.837 51.6984 109.376 51.8807C108.915 52.0597 108.388 52.1491 107.795 52.1491ZM111.733 54.8636V44.3636H113.503V45.6264H113.607C113.7 45.4408 113.831 45.2436 114 45.0348C114.169 44.8227 114.398 44.642 114.686 44.4929C114.975 44.3404 115.343 44.2642 115.79 44.2642C116.38 44.2642 116.912 44.415 117.386 44.7166C117.863 45.0149 118.241 45.4574 118.519 46.044C118.801 46.6274 118.942 47.3433 118.942 48.1918C118.942 49.0303 118.804 49.7429 118.529 50.3295C118.254 50.9162 117.88 51.3636 117.406 51.6719C116.932 51.9801 116.395 52.1342 115.795 52.1342C115.357 52.1342 114.995 52.0613 114.706 51.9155C114.418 51.7696 114.186 51.594 114.01 51.3885C113.838 51.1797 113.704 50.9825 113.607 50.7969H113.533V54.8636H111.733ZM113.498 48.1818C113.498 48.6757 113.568 49.1082 113.707 49.4794C113.849 49.8506 114.053 50.1406 114.318 50.3494C114.587 50.5549 114.912 50.6577 115.293 50.6577C115.691 50.6577 116.024 50.5516 116.292 50.3395C116.561 50.1241 116.763 49.8307 116.899 49.4595C117.038 49.085 117.107 48.6591 117.107 48.1818C117.107 47.7079 117.039 47.2869 116.904 46.919C116.768 46.5511 116.566 46.2628 116.297 46.054C116.029 45.8452 115.694 45.7408 115.293 45.7408C114.908 45.7408 114.582 45.8419 114.313 46.044C114.045 46.2462 113.841 46.5296 113.702 46.8942C113.566 47.2588 113.498 47.688 113.498 48.1818ZM121.238 49.5639L124.296 44.3636H126.145V52H124.405V46.7947L121.358 52H119.503V44.3636H121.238V49.5639ZM129.211 52.1541C128.727 52.1541 128.291 52.0679 127.903 51.8956C127.519 51.7199 127.214 51.4614 126.989 51.12C126.766 50.7786 126.655 50.3577 126.655 49.8572C126.655 49.4264 126.735 49.0701 126.894 48.7884C127.053 48.5066 127.27 48.2812 127.545 48.1122C127.82 47.9432 128.13 47.8156 128.475 47.7294C128.823 47.6399 129.183 47.5753 129.554 47.5355C130.001 47.4891 130.364 47.4477 130.643 47.4112C130.921 47.3714 131.123 47.3118 131.249 47.2322C131.378 47.1494 131.443 47.0218 131.443 46.8494V46.8196C131.443 46.4451 131.332 46.1551 131.11 45.9496C130.888 45.7441 130.568 45.6413 130.15 45.6413C129.71 45.6413 129.36 45.7375 129.101 45.9297C128.846 46.1219 128.674 46.349 128.584 46.6108L126.904 46.3722C127.037 45.9081 127.255 45.5204 127.56 45.2088C127.865 44.8939 128.238 44.6586 128.679 44.5028C129.12 44.3438 129.607 44.2642 130.141 44.2642C130.508 44.2642 130.875 44.3073 131.239 44.3935C131.604 44.4796 131.937 44.6222 132.239 44.821C132.54 45.0166 132.782 45.2834 132.964 45.6214C133.15 45.9595 133.243 46.3821 133.243 46.8892V52H131.513V50.951H131.453C131.344 51.1631 131.19 51.362 130.991 51.5476C130.795 51.7299 130.548 51.8774 130.25 51.9901C129.955 52.0994 129.609 52.1541 129.211 52.1541ZM129.678 50.8317C130.039 50.8317 130.353 50.7604 130.618 50.6179C130.883 50.4721 131.087 50.2798 131.229 50.0412C131.375 49.8026 131.448 49.5424 131.448 49.2607V48.3608C131.392 48.4072 131.296 48.4503 131.16 48.4901C131.027 48.5298 130.878 48.5646 130.712 48.5945C130.547 48.6243 130.382 48.6508 130.22 48.674C130.058 48.6972 129.917 48.7171 129.797 48.7337C129.529 48.7701 129.289 48.8298 129.077 48.9126C128.864 48.9955 128.697 49.1115 128.574 49.2607C128.452 49.4065 128.391 49.5954 128.391 49.8274C128.391 50.1589 128.511 50.4091 128.753 50.5781C128.995 50.7472 129.304 50.8317 129.678 50.8317ZM133.545 52L133.536 50.5185H133.799C133.998 50.5185 134.165 50.4737 134.301 50.3842C134.437 50.2947 134.55 50.1456 134.639 49.9368C134.729 49.7247 134.798 49.4396 134.848 49.0817C134.898 48.7237 134.933 48.2779 134.952 47.7443L135.087 44.3636H140.655V52H138.915V45.8402H136.722L136.603 48.3011C136.573 48.9375 136.502 49.4893 136.389 49.9567C136.28 50.4207 136.124 50.8035 135.922 51.1051C135.723 51.4067 135.473 51.6321 135.171 51.7812C134.87 51.9271 134.513 52 134.102 52H133.545ZM144.818 52.1491C144.072 52.1491 143.426 51.9851 142.879 51.657C142.332 51.3288 141.908 50.8698 141.606 50.2798C141.308 49.6899 141.159 49.0005 141.159 48.2116C141.159 47.4228 141.308 46.7318 141.606 46.1385C141.908 45.5452 142.332 45.0845 142.879 44.7564C143.426 44.4283 144.072 44.2642 144.818 44.2642C145.564 44.2642 146.21 44.4283 146.757 44.7564C147.304 45.0845 147.726 45.5452 148.025 46.1385C148.326 46.7318 148.477 47.4228 148.477 48.2116C148.477 49.0005 148.326 49.6899 148.025 50.2798C147.726 50.8698 147.304 51.3288 146.757 51.657C146.21 51.9851 145.564 52.1491 144.818 52.1491ZM144.828 50.7074C145.232 50.7074 145.57 50.5964 145.842 50.3743C146.114 50.1489 146.316 49.8473 146.449 49.4695C146.585 49.0916 146.652 48.6707 146.652 48.2067C146.652 47.7393 146.585 47.3168 146.449 46.9389C146.316 46.5578 146.114 46.2545 145.842 46.0291C145.57 45.8037 145.232 45.6911 144.828 45.6911C144.414 45.6911 144.069 45.8037 143.794 46.0291C143.522 46.2545 143.318 46.5578 143.182 46.9389C143.05 47.3168 142.983 47.7393 142.983 48.2067C142.983 48.6707 143.05 49.0916 143.182 49.4695C143.318 49.8473 143.522 50.1489 143.794 50.3743C144.069 50.5964 144.414 50.7074 144.828 50.7074ZM149.025 52V44.3636H152.231C153.136 44.3636 153.85 44.5443 154.374 44.9055C154.901 45.2668 155.164 45.7706 155.164 46.4169C155.164 46.8445 155.015 47.1941 154.717 47.4659C154.422 47.7344 154.019 47.915 153.509 48.0078C153.91 48.041 154.261 48.142 154.563 48.3111C154.868 48.4801 155.106 48.7022 155.279 48.9773C155.451 49.2524 155.537 49.5689 155.537 49.9268C155.537 50.3478 155.426 50.714 155.204 51.0256C154.985 51.3338 154.666 51.5741 154.245 51.7464C153.827 51.9155 153.32 52 152.723 52H149.025ZM150.71 50.5831H152.723C153.055 50.5831 153.315 50.5052 153.504 50.3494C153.693 50.1903 153.787 49.9749 153.787 49.7031C153.787 49.3883 153.693 49.1413 153.504 48.9624C153.315 48.7801 153.055 48.6889 152.723 48.6889H150.71V50.5831ZM150.71 47.5256H152.266C152.511 47.5256 152.722 47.4908 152.897 47.4212C153.073 47.3482 153.207 47.2472 153.3 47.1179C153.393 46.9853 153.439 46.8279 153.439 46.6456C153.439 46.3838 153.332 46.1783 153.116 46.0291C152.904 45.88 152.609 45.8054 152.231 45.8054H150.71V47.5256Z" fill="#00B050"/>
</svg>
