<svg width="175" height="163" viewBox="0 0 175 163" fill="none" xmlns="http://www.w3.org/2000/svg">
<path fill-rule="evenodd" clip-rule="evenodd" d="M11.8312 2.327C5.45416 5.666 1.22216 12.315 0.402163 20.284C0.0481632 23.725 -0.100837 53.991 0.0721628 87.541C0.413163 153.934 0.182162 151.261 6.05416 156.743C11.8562 162.161 9.99416 162.041 88.0372 162.041C159.585 162.041 160.294 162.021 164.635 159.92C167.274 158.643 170.085 156.186 171.701 153.744L174.385 149.689L174.657 97.615L174.93 45.541L172.657 41.041C171.386 38.522 168.797 35.517 166.778 34.216C163.204 31.912 163.166 31.816 162.571 23.376C161.853 13.212 159.031 7.49 152.653 3.269L148.532 0.541L82.4052 0.27L16.2782 0L11.8312 2.327ZM146.962 14.964C149.6 17.602 149.885 18.528 149.885 24.464V31.041H85.8532C17.5362 31.041 16.5242 30.973 13.9652 26.191C11.9672 22.458 12.6852 18.087 15.8082 14.964L18.7312 12.041H81.3852H144.039L146.962 14.964ZM160.43 45.496C162.708 47.773 162.885 48.669 162.885 57.903V67.857L139.135 68.199C116.468 68.525 115.163 68.65 110.527 70.933C93.3762 79.376 88.7402 100.507 100.987 114.42C108.679 123.158 109.871 123.469 137.885 124.041L162.385 124.541L162.668 134.639C162.914 143.412 162.696 145.052 161.007 147.139L159.062 149.541H88.0782C19.6782 149.541 17.0182 149.472 14.9902 147.636C12.9042 145.748 12.8852 145.281 12.8852 96.386C12.8852 48.374 12.9392 46.987 14.8852 45.041C16.8472 43.079 18.2182 43.041 87.4302 43.041H157.976L160.43 45.496ZM33.5262 63.886C32.0282 65.54 31.8832 68.972 32.1212 97.123L32.3852 128.515L35.2502 129.887C37.8112 131.115 38.3932 131.052 40.7502 129.293L43.3852 127.326L43.6492 96.698C43.9052 67.145 43.8432 65.999 41.8992 64.055C39.3852 61.541 35.7152 61.466 33.5262 63.886ZM162.885 96.592V112.144L139.635 111.842C117.133 111.551 116.28 111.466 113.12 109.212C104.143 102.81 104.509 89.58 113.837 83.294C117.064 81.12 117.98 81.041 140.033 81.041H162.885V96.592ZM123.995 88.437C117.307 92.144 117.498 101.206 124.333 104.449C132.201 108.183 139.982 100.339 136.255 92.43C133.941 87.52 128.718 85.819 123.995 88.437Z" fill="#546C99"/>
</svg>
